<?xml version="1.0" ?><svg id="Layer_1" style="enable-background:new 0 0 512 512;" version="1.1" viewBox="0 0 512 512" xml:space="preserve" xmlns="http://www.w3.org/2000/svg" xmlns:xlink="http://www.w3.org/1999/xlink"><style type="text/css">
	.st0{fill:#B01F36;}
	.st1{fill:#2B6537;}
</style><g><rect class="st0" height="298.7" width="512" y="106.7"/><polygon class="st1" points="235.6,232.1 169.7,232.1 244.8,289.4 256,280.8 210.5,246.1 231.3,246  "/><polygon class="st1" points="276.4,232.1 256,166.2 227.3,258.9 238.6,267.5 256,211.3 262.5,232.1  "/><polygon class="st1" points="289,272.9 342.3,232.1 249.6,232.1 245.2,246 301.5,246 284.7,258.9  "/><polygon class="st1" points="256,298.1 309.3,338.8 280.7,246 266.8,246 284.1,302.2 267.3,289.4  "/><polygon class="st1" points="223,272.8 202.7,338.8 277.7,281.4 273.4,267.5 227.9,302.3 234.3,281.5  "/></g></svg>