<?xml version="1.0" encoding="utf-8"?>
<!-- Generator: Adobe Illustrator 23.0.1, SVG Export Plug-In . SVG Version: 6.00 Build 0)  -->
<svg version="1.1" id="Calque_1" xmlns="http://www.w3.org/2000/svg" xmlns:xlink="http://www.w3.org/1999/xlink" x="0px" y="0px"
	 viewBox="0 0 113.1 29.2" style="enable-background:new 0 0 113.1 29.2;" xml:space="preserve">
<style type="text/css">
	.st0{enable-background:new    ;}
	.st1{fill:#FFFFFF;}
</style>
<g class="st0">
	<path class="st1" d="M7.2,17.6L11,6.6h1.2l-5,13.3H4.7V7.7c-1.9,0.6-2.9,2-2.9,4c0,0.9,0.2,1.1,0.2,1.2c-1.2,0-1.9-0.4-1.9-1.7
		c0-2.4,3.3-4.6,6.3-4.6c0.2,0,0.5,0,0.7,0L7.2,17.6z"/>
	<path class="st1" d="M14.5,18.6c0.9,0,2.4-1,3-2.4h0.8c-1,1.8-2.7,3.6-5,3.6c-1.7,0-2.6-1.3-2.6-2.8c0-2.3,1-6.2,4.2-6.2
		c1.5,0,2.3,0.6,2.3,1.9c0,2.2-2.3,3.4-4,3.6c0,0.3-0.1,0.6-0.1,0.8C13.1,18.3,13.8,18.6,14.5,18.6z M15.4,11.8c-1,0-1.8,2-2.2,3.7
		c1.6,0,2.8-1.4,2.8-2.7C16.1,12.4,16,11.8,15.4,11.8z"/>
	<path class="st1" d="M21.2,11L21,11.9c0.6-0.5,1.4-0.9,2.1-0.9c0.8,0,1.3,0.5,1.3,1.1c0,0.6-0.5,1.4-1.3,1.4c-1,0-0.5-1.2-1-1.2
		s-0.8,0.2-1.2,0.6l-1.5,7h-2.6l1.9-8.9H21.2z"/>
	<path class="st1" d="M28.2,11l-1.3,6.1c0,0.2-0.1,0.4-0.1,0.6c0,0.4,0.2,0.7,0.9,0.7c0.7,0,1.6-1,2.4-1.6h0.6
		c-0.8,0.8-2.8,3.2-4.2,3.2c-1.4,0-2.2-0.6-2.2-1.9c0-0.3,0-0.6,0.1-0.9l1.3-6.1H28.2z M27.4,7.2c0.8,0,1.4,0.6,1.4,1.4
		s-0.6,1.4-1.4,1.4S26,9.4,26,8.7S26.6,7.2,27.4,7.2z"/>
	<path class="st1" d="M36,9.1c0-0.5,0.2-0.9,0.5-0.9c0,0,0.1,0,0.2,0c0-0.5-0.5-0.6-1-0.6c-1.1,0-2,0.9-2.2,1.9L33.2,11H35l-0.1,0.7
		h-1.8l-2,9.6c-0.5,2.6-2.1,3-3.2,3c-1.1,0-2.1-0.8-2.1-1.9c0-1.6,1.4-2.2,3.1-2.7l2.1-10.2c0.5-2.6,2.7-3,3.9-3
		c1.6,0,3.6,0.2,3.6,2.2c0,0.8-0.7,1.3-1.3,1.3C36.5,10.1,36,9.9,36,9.1z M27.4,22.8c0.4,0,0.8-0.3,1.1-1.4l0.2-1
		c-1.1,0.4-2,0.9-2,1.8C26.7,22.5,27,22.8,27.4,22.8z M38.2,11L37,17.1c-0.1,0.2-0.1,0.4-0.1,0.6c0,0.4,0.2,0.7,0.9,0.7
		c0.7,0,1.6-1,2.4-1.6h0.6c-0.8,0.8-2.8,3.2-4.2,3.2s-2.2-0.6-2.2-1.9c0-0.3,0-0.6,0.1-0.9l1.3-6.1H38.2z"/>
	<path class="st1" d="M42.9,18.6c0.9,0,2.4-1,3-2.4h0.8c-1,1.8-2.7,3.6-5,3.6c-1.7,0-2.6-1.3-2.6-2.8c0-2.3,1-6.2,4.2-6.2
		c1.5,0,2.3,0.6,2.3,1.9c0,2.2-2.3,3.4-4,3.6c0,0.3-0.1,0.6-0.1,0.8C41.4,18.3,42.2,18.6,42.9,18.6z M43.8,11.8c-1,0-1.8,2-2.2,3.7
		c1.6,0,2.8-1.4,2.8-2.7C44.4,12.4,44.3,11.8,43.8,11.8z"/>
	<path class="st1" d="M52.5,17.1c-0.1,0.2-0.1,0.4-0.1,0.6c0,0.4,0.1,0.7,0.6,0.7c0.1,0,0.3,0,0.5-0.1c-0.5,1.5-1.2,1.6-1.9,1.6
		c-1,0-1.6-0.5-1.8-1.3c-0.5,0.7-1.3,1.4-2.4,1.4c-1.7,0-2.2-1.2-2.2-2.3c0-3.1,1.1-6.7,4.7-6.7c0.4,0,0.9,0.2,1.2,0.4L52,7.8
		l2.6-0.4L52.5,17.1z M47.7,17.3c0,1.1,0.6,1.3,1,1.3c0.4,0,0.8-0.4,1.1-0.9c0-0.2,0.1-0.4,0.1-0.6l1-4.7c-0.3-0.2-0.6-0.3-0.9-0.3
		C48.8,12,47.7,14.9,47.7,17.3z"/>
	<path class="st1" d="M64.6,8.2l-0.9,4.1h0.2c1.5,0,2.5-1.7,2.5-3.1c0-1-0.6-1.9-2-1.9c-2.9,0-4.8,1.6-4.8,4.3
		c0,0.9,0.2,1.1,0.2,1.2c-1.2,0-1.9-0.4-1.9-1.7c0-2.4,3.3-4.6,6.3-4.6c2.8,0,4,1.4,4,2.9c0,1.1-0.7,2.3-1.9,3.1
		c0.9,0.3,1.2,0.9,1.2,1.8c0,1.5-0.9,3.4-0.9,4.5c0,0.5,0.3,1,0.7,1.2c-0.7,0.2-1.3,0.3-1.8,0.3c-1.2,0-1.4-0.6-1.4-1.2
		c0-1.2,0.9-3.3,0.9-4.7c0-0.7-0.3-1.2-1.1-1.2c-0.2,0-0.4,0-0.6,0.1l-1.4,6.7h-2.6L62,8.6L64.6,8.2z"/>
	<path class="st1" d="M72.1,18.6c0.9,0,2.4-1,3-2.4h0.8c-1,1.8-2.7,3.6-5,3.6c-1.7,0-2.6-1.3-2.6-2.8c0-2.3,1-6.2,4.2-6.2
		c1.5,0,2.3,0.6,2.3,1.9c0,2.2-2.3,3.4-4,3.6c0,0.3-0.1,0.6-0.1,0.8C70.7,18.3,71.4,18.6,72.1,18.6z M73,11.8c-1,0-1.8,2-2.2,3.7
		c1.6,0,2.8-1.4,2.8-2.7C73.7,12.4,73.6,11.8,73,11.8z"/>
	<path class="st1" d="M81.9,12.3c0,2.8-1.4,7.7-5,7.7c-1.4,0-2.2-0.6-2.2-1.9c0-0.3,0-0.6,0.1-0.9L76,11h2.6l-1.3,6.1
		c-0.1,0.2-0.1,0.5-0.1,0.7c0,0.3,0.2,0.6,0.7,0.6c1.7,0,2.9-3.9,2.9-5.9c-0.1,0-0.3,0.1-0.4,0.1c-0.5,0-0.7-0.5-0.7-1
		c0-0.4,0.4-0.9,1-0.9C81.5,10.7,81.9,11.3,81.9,12.3z"/>
	<path class="st1" d="M86,11l-1.3,6.1c0,0.2-0.1,0.4-0.1,0.6c0,0.4,0.2,0.7,0.9,0.7c0.7,0,1.6-1,2.4-1.6h0.6
		c-0.8,0.8-2.8,3.2-4.2,3.2c-1.4,0-2.2-0.6-2.2-1.9c0-0.3,0-0.6,0.1-0.9l1.3-6.1H86z M85.2,7.2c0.8,0,1.4,0.6,1.4,1.4
		s-0.6,1.4-1.4,1.4s-1.4-0.6-1.4-1.4S84.4,7.2,85.2,7.2z"/>
	<path class="st1" d="M90.7,18.6c0.9,0,2.4-1,3-2.4h0.8c-1,1.8-2.7,3.6-5,3.6c-1.7,0-2.6-1.3-2.6-2.8c0-2.3,1-6.2,4.2-6.2
		c1.5,0,2.3,0.6,2.3,1.9c0,2.2-2.3,3.4-4,3.6c0,0.3-0.1,0.6-0.1,0.8C89.2,18.3,90,18.6,90.7,18.6z M91.6,11.8c-1,0-1.8,2-2.2,3.7
		c1.6,0,2.8-1.4,2.8-2.7C92.2,12.4,92.1,11.8,91.6,11.8z"/>
	<path class="st1" d="M105.1,12.3c0,2.8-1.4,7.7-5,7.7c-1.2,0-2-0.5-2.2-1.5c-0.8,0.8-1.8,1.5-2.6,1.5c-1.4,0-2.2-0.6-2.2-1.9
		c0-0.3,0-0.6,0.1-0.9l1.3-6.1h2.6l-1.3,6.1c0,0.2-0.1,0.4-0.1,0.6c0,0.4,0.2,0.7,0.9,0.7c0.4,0,0.8-0.3,1.2-0.6
		c0-0.2,0-0.4,0.1-0.6l1.3-6.1h2.6l-1.3,6.1c-0.1,0.2-0.1,0.5-0.1,0.7c0,0.3,0.2,0.6,0.7,0.6c1.7,0,2.9-3.9,2.9-5.9
		c-0.1,0-0.3,0.1-0.4,0.1c-0.5,0-0.7-0.5-0.7-1c0-0.4,0.4-0.9,1-0.9C104.8,10.7,105.1,11.3,105.1,12.3z"/>
	<path class="st1" d="M110.5,10.7v0.2c0,2.9,1.3,3.8,1.3,5.9c0,1.7-1.1,3.1-3.5,3.1c-2.1,0-3-0.6-3-2.3c0-1.4,0.6-2.2,1.4-2.3
		c0.6-1.2,1-2.7,1.3-4.1L110.5,10.7z M106.8,17.5c-0.2,0-0.4-0.1-0.6-0.2c0,1.1,0.6,1.5,1.5,1.5c0.6,0,1.5-0.7,1.5-2.1
		c0-1.1-0.8-2.1-0.8-4.3c-0.3,0.9-0.5,2-0.9,2.9c0.4,0.1,0.6,0.5,0.6,1C108,17.1,107.4,17.5,106.8,17.5z"/>
</g>
</svg>
