<?xml version="1.0" encoding="utf-8"?>
<!-- Generator: Adobe Illustrator 23.0.1, SVG Export Plug-In . SVG Version: 6.00 Build 0)  -->
<svg version="1.0" id="Layer_1" xmlns="http://www.w3.org/2000/svg" xmlns:xlink="http://www.w3.org/1999/xlink" x="0px" y="0px"
	 viewBox="0 0 512 512" style="enable-background:new 0 0 512 512;" xml:space="preserve">
<style type="text/css">
	.st0{fill:#CB2127;}
	.st1{fill:#F7DE28;}
</style>
<g id="XMLID_1_">
	<rect id="XMLID_7_" y="106.8" class="st0" width="512" height="298.7"/>
	<polygon id="XMLID_6_" class="st1" points="49.3,215 58.9,185.2 33.6,166.7 64.9,166.6 74.7,136.9 84.4,166.6 115.7,166.7 
		90.4,185.2 100,215 74.7,196.6 	"/>
	<polygon id="XMLID_5_" class="st1" points="136.6,231.1 147.2,235.3 154.5,226.6 153.7,238 164.3,242.3 153.2,245.1 152.4,256.4 
		146.3,246.8 135.3,249.5 142.6,240.7 	"/>
	<polygon id="XMLID_4_" class="st1" points="193.8,173.8 182.6,171.9 177.2,181.9 175.6,170.6 164.4,168.6 174.6,163.6 173,152.3 
		181,160.5 191.2,155.5 185.9,165.6 	"/>
	<polygon id="XMLID_3_" class="st1" points="170,224.8 173.5,214 164.3,207.3 175.7,207.3 179.2,196.4 182.7,207.3 194.1,207.3 
		184.9,214 188.4,224.8 179.2,218.2 	"/>
	<polygon id="XMLID_2_" class="st1" points="137.1,125.8 147.5,130.6 155.3,122.2 153.9,133.6 164.2,138.5 153,140.7 151.6,152 
		146.1,142 134.9,144.2 142.6,135.8 	"/>
</g>
</svg>
