<?xml version="1.0" encoding="utf-8"?>
<!-- Generator: Adobe Illustrator 25.4.1, SVG Export Plug-In . SVG Version: 6.00 Build 0)  -->
<svg version="1.1" id="Calque_1" xmlns="http://www.w3.org/2000/svg" xmlns:xlink="http://www.w3.org/1999/xlink" x="0px" y="0px"
	 viewBox="0 0 100 125" style="enable-background:new 0 0 100 125;" xml:space="preserve">
<style type="text/css">
	.st0{fill:#344E87;}
</style>
<path class="st0" d="M26.2,39.9h45.5v57.3H26.2L26.2,39.9z"/>
<path class="st0" d="M18,97.2h4.6l0-57.3h-4.8c-4.5,0-8.2,3.7-8.2,8.2v40.8C9.7,93.5,13.4,97.2,18,97.2L18,97.2z"/>
<path class="st0" d="M80,97.2h-4.6l0-57.3h4.8c4.5,0,8.2,3.7,8.2,8.2v40.8C88.3,93.5,84.6,97.2,80,97.2L80,97.2z"/>
<path class="st0" d="M62.4,27.8H34.5c-2,0-3.6,1.7-3.6,3.6v8.5h5.8v-6.4h23.5v6.4h5.8v-8.5C66,29.4,64.4,27.8,62.4,27.8L62.4,27.8z"
	/>
</svg>
