<?xml version="1.0" encoding="utf-8"?>
<!-- Generator: Adobe Illustrator 22.0.1, SVG Export Plug-In . SVG Version: 6.00 Build 0)  -->
<svg version="1.1" id="Calque_1" xmlns="http://www.w3.org/2000/svg" xmlns:xlink="http://www.w3.org/1999/xlink" x="0px" y="0px"
	 viewBox="0 0 78 81" style="enable-background:new 0 0 78 81;" xml:space="preserve">
<g>
	<circle cx="40.2" cy="41" r="14.5"/>
	<path d="M80,37.4h-7.2C71.2,22,59,9.8,43.6,8.2V1h-7.3v7.3C21.2,10.1,9.2,22.2,7.6,37.4H0v7.3h7.7c1.8,15,13.7,26.8,28.6,28.6V81
		h7.3v-7.7c15.2-1.6,27.3-13.6,29.1-28.7H80V37.4z M43.6,66c-0.5,0.1-0.9,0.1-1.4,0.2c-0.7,0.1-1.3,0.1-2,0.1s-1.4,0-2.1-0.1
		c-0.6-0.1-1.2-0.1-1.8-0.2l0,0c-11-1.7-19.6-10.3-21.3-21.3l0,0c-0.1-0.6-0.2-1.2-0.2-1.8c-0.1-0.7-0.1-1.4-0.1-2.1
		c0-0.7,0-1.3,0.1-2c0-0.5,0.1-0.9,0.2-1.4l0,0c1.5-11.2,10.2-20,21.3-21.7l0,0c0.6-0.1,1.2-0.2,1.8-0.2c0.7-0.1,1.4-0.1,2.1-0.1
		c0.7,0,1.3,0,2,0.1c0.5,0,0.9,0.1,1.4,0.2C55,17.1,63.9,26,65.4,37.4l0,0c0.1,0.5,0.1,0.9,0.2,1.4c0.1,0.7,0.1,1.3,0.1,2
		s0,1.4-0.1,2.1c-0.1,0.6-0.1,1.2-0.2,1.8l0,0C63.7,55.7,54.8,64.5,43.6,66z"/>
</g>
</svg>
