<?xml version="1.0" encoding="utf-8"?>
<!-- Generator: Adobe Illustrator 25.4.1, SVG Export Plug-In . SVG Version: 6.00 Build 0)  -->
<svg version="1.1" id="Calque_1" xmlns="http://www.w3.org/2000/svg" xmlns:xlink="http://www.w3.org/1999/xlink" x="0px" y="0px"
	 viewBox="0 0 100 125" style="enable-background:new 0 0 100 125;" xml:space="preserve">
<style type="text/css">
	.st0{fill:#344E87;}
	.st1{fill:#344E87;stroke:#FFFFFF;stroke-width:4;stroke-miterlimit:10;}
</style>
<path class="st0" d="M66.1,11.8c0,6.2-5,11.1-11.1,11.1s-11.1-5-11.1-11.1c0-6.2,5-11.1,11.1-11.1S66.1,5.6,66.1,11.8"/>
<path class="st0" d="M62.4,26.6H47.6c-6.8,0-12.4,5.6-12.4,12.4v28.5c0,5,3.1,9.4,7.4,11.3v35.7c0,5.4,4.5,9.9,9.9,9.9h4.9
	c5.4,0,9.9-4.5,9.9-9.9V78.8c4.4-1.9,7.4-6.3,7.4-11.3V39C74.8,32.2,69.2,26.6,62.4,26.6L62.4,26.6z"/>
<path class="st1" d="M41.3,12.4c0,6.2-5,11.1-11.1,11.1s-11.1-5-11.1-11.1c0-6.2,5-11.1,11.1-11.1S41.3,6.2,41.3,12.4"/>
<path class="st1" d="M37.6,27.2H22.8c-6.8,0-12.4,5.6-12.4,12.4v28.5c0,5,3.1,9.4,7.4,11.3v35.7c0,5.4,4.5,9.9,9.9,9.9h4.9
	c5.4,0,9.9-4.5,9.9-9.9V79.4c4.4-1.9,7.4-6.3,7.4-11.3V39.6C50,32.8,44.4,27.2,37.6,27.2L37.6,27.2z"/>
</svg>
