<?xml version="1.0" encoding="utf-8"?>
<!-- Generator: Adobe Illustrator 23.0.1, SVG Export Plug-In . SVG Version: 6.00 Build 0)  -->
<svg version="1.1" id="Calque_1" xmlns="http://www.w3.org/2000/svg" xmlns:xlink="http://www.w3.org/1999/xlink" x="0px" y="0px"
	 viewBox="0 0 29 29.2" style="enable-background:new 0 0 29 29.2;" xml:space="preserve">
<style type="text/css">
	.st0{fill:#F3DD68;}
</style>
<path class="st0" d="M15.4,4.2L18,9.4c0.1,0.3,0.4,0.5,0.8,0.5l5.8,0.8c0.8,0.1,1.1,1.1,0.6,1.7l-4.2,4.1c-0.2,0.2-0.3,0.6-0.3,0.9
	l1,5.7c0.1,0.8-0.7,1.4-1.5,1.1L15,21.6c-0.3-0.2-0.6-0.2-0.9,0l-5.2,2.7c-0.7,0.4-1.6-0.2-1.5-1.1l1-5.7c0.1-0.3-0.1-0.7-0.3-0.9
	l-4.2-4.1c-0.6-0.6-0.3-1.6,0.6-1.7l5.8-0.8c0.3,0,0.6-0.3,0.8-0.5l2.6-5.2C14,3.5,15,3.5,15.4,4.2z"/>
</svg>
