<?xml version="1.0" encoding="utf-8"?>
<!-- Generator: Adobe Illustrator 25.4.1, SVG Export Plug-In . SVG Version: 6.00 Build 0)  -->
<svg version="1.1" id="Calque_1" xmlns="http://www.w3.org/2000/svg" xmlns:xlink="http://www.w3.org/1999/xlink" x="0px" y="0px"
	 viewBox="0 0 100 125" style="enable-background:new 0 0 100 125;" xml:space="preserve">
<style type="text/css">
	.st0{fill:#344E87;}
</style>
<path class="st0" d="M91.1,46.4C80.3,35.6,65.9,29.6,50.5,29.6s-29.8,6-40.6,16.8c-2.5,2.5-2.5,6.4,0,8.9c1.3,1.3,2.9,1.9,4.5,1.9
	s3.2-0.6,4.5-1.9c8.4-8.5,19.7-13.2,31.7-13.2s23.3,4.7,31.7,13.2c2.5,2.5,6.4,2.5,8.9,0C93.6,52.9,93.6,48.8,91.1,46.4L91.1,46.4z"
	/>
<path class="st0" d="M26.7,63.3c-2.5,2.5-2.5,6.4,0,8.9c1.3,1.3,2.9,1.9,4.5,1.9c1.6,0,3.2-0.6,4.5-1.9c8.2-8.2,21.6-8.2,29.7-0.1
	c2.4,2.5,6.4,2.5,8.9,0c2.5-2.5,2.5-6.4,0-8.9C61.1,50.2,39.9,50.2,26.7,63.3L26.7,63.3z"/>
<path class="st0" d="M60.4,87c0,5.4-4.4,9.8-9.8,9.8c-5.4,0-9.8-4.4-9.8-9.8c0-5.4,4.4-9.8,9.8-9.8C56,77.2,60.4,81.6,60.4,87"/>
</svg>
